Coordinates
version=1
nRows=7
nColumns=40
inDegrees=yes

Units are S.I. units (second, meters, Newtons, ...)
If the header above contains a line with 'inDegrees', this indicates whether rotational values are in degrees (yes) or radians (no).

endheader
time	pelvis_tilt	pelvis_list	pelvis_rotation	pelvis_tx	pelvis_ty	pelvis_tz	hip_flexion_r	hip_adduction_r	hip_rotation_r	knee_angle_r	knee_angle_r_beta	ankle_angle_r	subtalar_angle_r	mtp_angle_r	hip_flexion_l	hip_adduction_l	hip_rotation_l	knee_angle_l	knee_angle_l_beta	ankle_angle_l	subtalar_angle_l	mtp_angle_l	lumbar_extension	lumbar_bending	lumbar_rotation	arm_flex_r	arm_add_r	arm_rot_r	elbow_flex_r	pro_sup_r	wrist_flex_r	wrist_dev_r	arm_flex_l	arm_add_l	arm_rot_l	elbow_flex_l	pro_sup_l	wrist_flex_l	wrist_dev_l
      8.62500000000000000000	     -5.98036317711179599144	      1.02270158201990235547	   -176.75737627950852015601	      0.24332208305853184060	      0.74414135001325687480	     -0.90522039118608954578	     33.51630983086668891247	    -45.06687104049458980626	    -22.93852795033065916641	     53.80675127830562587405	      0.93910496960810097011	     -0.01869139101543263598	      0.00000000000000000000	      0.00000000000000000000	     39.17591899486851048096	    -46.88086883437697593990	    -18.33587225866092751403	     56.76959827882581066660	      0.99081640500001633143	     -0.70493891147855824997	      0.00000000000000000000	      0.00000000000000000000	    -53.67246027202052260918	      3.25325767371373064663	     -3.44674166560542172277	     38.71238319596663046696	      2.26371186923283440606	     31.82567686862137890103	      4.17348641321411761851	     12.62980041405016962131	      0.00000000000000000000	      0.00000000000000000000	     44.15868599709920516716	     -6.92127680425557212374	     73.08701867243864569446	      6.05594207421180996676	     79.64901239811739230845	      0.00000000000000000000	      0.00000000000000000000
      8.63000000000000078160	     -5.85923192887628907499	      1.01756257920090553704	   -176.81236638727801846471	      0.24341983923305970938	      0.74570588672631143989	     -0.90532266707391417793	     33.39799847169290814008	    -44.91913745846341754486	    -23.10082403580932108866	     53.40398662143663699453	      0.93207540023507184923	     -0.27019651918183001937	      0.00000000000000000000	      0.00000000000000000000	     38.92783167703630908818	    -46.75538319406035725478	    -18.58218356862053610712	     56.35635837421612137632	      0.98360400806394998607	     -0.88256551335908894895	      0.00000000000000000000	      0.00000000000000000000	    -53.36338343020459262789	      3.19197302573978891616	     -3.37043609016873357831	     38.56456922276942123062	      2.20990965368351544029	     31.50443620252664089776	      4.15921402692290875791	     13.28487237483094851598	      0.00000000000000000000	      0.00000000000000000000	     44.06218783225125434910	     -6.92772308680977566553	     73.89977768463943164079	      6.10791029847714384005	     79.35881197226608207984	      0.00000000000000000000	      0.00000000000000000000
      8.63499999999999978684	     -5.73305702362271318862	      1.00629122904276591122	   -176.84950746851646385949	      0.24348714142930363846	      0.74729350537679117839	     -0.90539387764648138202	     33.26119428124700760918	    -44.78501056065106666892	    -23.28363124074872914093	     52.98804220059905389917	      0.92481580058615520112	     -0.49843403295689325816	      0.00000000000000000000	      0.00000000000000000000	     38.68531493156310574477	    -46.60391728582548864779	    -18.81587298490601511958	     55.93132838452614663538	      0.97618583532414238135	     -1.04898649559951051558	      0.00000000000000000000	      0.00000000000000000000	    -53.05156286161701473247	      3.14386049246399501556	     -3.35788863655878211389	     38.43110706802922038605	      2.20643933940740888389	     31.32832806935041958241	      4.08825484225424684581	     13.69414182663373935611	      0.00000000000000000000	      0.00000000000000000000	     43.93133554066270107796	     -6.93191283709592287465	     74.30057295181140375462	      6.11569253545112800907	     78.91305061872544968082	      0.00000000000000000000	      0.00000000000000000000
      8.64000000000000056843	     -5.62719954601926897197	      1.03887520195818172652	   -176.87909883208052974624	      0.24354690505471640605	      0.74890258851395852258	     -0.90542419037441457252	     33.05736911554891577225	    -44.61175344669821640764	    -23.52636386618238617530	     52.55279949884617707312	      0.91721938239529177128	     -0.78716165796443404723	      0.00000000000000000000	      0.00000000000000000000	     38.47324344541362250993	    -46.49173902676911040999	    -18.99608823545712965597	     55.51929558318276036744	      0.96899450631448447169	     -1.22214975336687237117	      0.00000000000000000000	      0.00000000000000000000	    -52.75751726639745697867	      3.15137496054095889164	     -3.34256619998586268494	     38.35500461473706934612	      2.22197511317844975665	     31.41092752109889829626	      4.10985030783290028467	     13.43042137949332648361	      0.00000000000000000000	      0.00000000000000000000	     43.80903005844740505381	     -6.93156860764985260914	     74.10705177880458904838	      6.11396437534807990488	     79.46908756346702773499	      0.00000000000000000000	      0.00000000000000000000
      8.64499999999999957367	     -5.46577953138749528250	      1.19576629855201899133	   -176.70084442158375281906	      0.24363829274143564141	      0.75035670357339123715	     -0.90509023630617801981	     32.66233075231758675727	    -44.45518232642254474740	    -24.13582314683427654245	     52.13032567229159042199	      0.90984582311841477598	     -1.05127811499871826051	      0.00000000000000000000	      0.00000000000000000000	     38.67782037368453984527	    -46.32157247566837554587	    -18.66912559132800453199	     55.15300952608568252344	      0.96260160861399257648	     -1.42220831643698431002	      0.00000000000000000000	      0.00000000000000000000	    -52.39047824846470291504	      3.40771614256262900255	     -3.30631670847798764257	     38.14912478244328042365	      2.12320771256087503787	     31.91690037696720239069	      4.16041703241848459527	     12.99615251911669666640	      0.00000000000000000000	      0.00000000000000000000	     43.68203327481153053213	     -6.96285411209759086404	     75.19714646063331997539	      6.23626525360412120591	     78.67052587191244583664	      0.00000000000000000000	      0.00000000000000000000
      8.65000000000000035527	     -5.36642911513540443735	      1.08187940488541123329	   -176.89890995129073303360	      0.24366120387063358588	      0.75212748433382592417	     -0.90550562480913998620	     32.69750694731847318053	    -44.27537380146834067318	    -23.97858156385982653092	     51.69669760516593015609	      0.90227758561801307824	     -1.24133757157420121509	      0.00000000000000000000	      0.00000000000000000000	     38.10866246754697783672	    -46.20093612372868818738	    -19.30246725978950905755	     54.65125734642702326482	      0.95384438104989088814	     -1.63356117115743182389	      0.00000000000000000000	      0.00000000000000000000	    -52.11067581692923766923	      3.15114460714977395739	     -3.34335886990886876902	     37.96834813788404261459	      2.12981201160285760210	     32.35003537691820696409	      4.21310141541810345700	     12.77341168175292551723	      0.00000000000000000000	      0.00000000000000000000	     43.57347090860889693431	     -7.01688284570027587250	     74.71232724032134342451	      6.20680213082132059554	     79.93182297403537006630	      0.00000000000000000000	      0.00000000000000000000
      8.65499999999999936051	     -5.25706527252948063733	      1.08507519731345913883	   -176.96662188226954981474	      0.24368277082473044359	      0.75379108968869690255	     -0.90562897362039795901	     32.55223270159230253284	    -44.08635087524469042819	    -24.12190250801294766347	     51.26116815790531688890	      0.89467616277392436608	     -1.48602140420884332173	      0.00000000000000000000	      0.00000000000000000000	     37.81060414141364844909	    -46.08177903448747514403	    -19.57107432871158891885	     54.20331393642559447699	      0.94602629368275503730	     -1.79838370453795914905	      0.00000000000000000000	      0.00000000000000000000	    -51.80854673907477092598	      3.08997420296584879296	     -3.27559664868687017147	     37.80546856629038643405	      2.06481227031794478677	     32.57361121534716374981	      4.14873642681719267955	     12.89283618510777884580	      0.00000000000000000000	      0.00000000000000000000	     43.43070834858882278695	     -7.04838264327907904061	     75.42449187610736771603	      6.32749820066303136912	     78.61647780331847457091	      0.00000000000000000000	      0.00000000000000000000
